<svg xmlns="http://www.w3.org/2000/svg" width="66.171" height="96" viewBox="30.7 19.6 66.171 96"><path d="M30.7 49.429v4.114c0 .171 0 1.714.171 2.4a31.465 31.465 0 0 0 2.335 8.199c2.016 4.802 4.997 9.657 7.978 14.446a325.356 325.356 0 0 1 4.087 6.67 895.16 895.16 0 0 0 12.305 20.266 1781.648 1781.648 0 0 1 6.21 10.076 1550.352 1550.352 0 0 1 3.815-6.552l1.927-3.284a2400.13 2400.13 0 0 1 5.743-9.707c.611-1.12 1.283-2.24 1.942-3.324a404.893 404.893 0 0 0 1.316-2.162c.685-1.2 2.057-2.4 2.57-3.428a155.686 155.686 0 0 1 5.599-9.306c5.086-8.03 10.173-16.035 10.173-23.951v-4.457a6.689 6.689 0 0 0-.07-.464c-.332-1.798-1.487-5.38-1.644-5.536a12.175 12.175 0 0 0-.382-1.106c-.353-.894-.8-1.822-1.16-2.666a33.442 33.442 0 0 0-5.27-8.782C81.44 22.653 71.591 19.6 63.27 19.6c-13.639 0-28.479 8.56-32.01 26.104a39.082 39.082 0 0 0-.561 3.725Zm21.086 3.6v-2.572a11.089 11.089 0 0 1 .88-4.47c1.936-4.44 6.734-6.501 11.12-6.501A12.118 12.118 0 0 1 75.92 50.854a13.126 13.126 0 0 1 .036.975C75.957 58.514 70.3 64 63.443 64a12.967 12.967 0 0 1-1.727-.114c-3.13-.42-6.26-2.047-8.42-5.59a15.749 15.749 0 0 1-1.167-2.353c-.343-.857-.343-2.743-.343-2.914Z" fill="#983645" fill-rule="evenodd" data-name="Facebook_Places_3_"/></svg>